# xmcd CD database file
#
# Track frame offsets:
#	182
#	27180
#	38320
#	59687
#	71125
#	89365
#	109960
#	146325
#	161727
#	175587
#	206135
#
# Disc length: 3043 seconds
#
# Revision: 1
# Processed by: cddbd v1.4PL0 Copyright (c) Steve Scherf et al.
# Submitted via: CDex 1.50beta9
#
DISCID=970be10b
DTITLE=Ray Charles - Blues Connotation - Live in Torino 8/8/1971
DYEAR=1971
DGENRE=Blues
TTITLE0=Blues Connotation
TTITLE1=Blues is my middle name
TTITLE2=Georgia on my mind
TTITLE3=Snow is fallin'
TTITLE4=Hey now
TTITLE5=What I'd say
TTITLE6=Goin' down slow
TTITLE7=I can't stop loving you
TTITLE8=I don't need no doctor
TTITLE9=Title Unknown
TTITLE10=Hallelujah, I love her so
EXTD=YEAR: 1971
EXTT0=
EXTT1=
EXTT2=
EXTT3=
EXTT4=
EXTT5=
EXTT6=
EXTT7=
EXTT8=
EXTT9=
EXTT10=
PLAYORDER=
